<mxfile host="app.diagrams.net" modified="2023-12-12T07:38:24.753Z" agent="Mozilla/5.0 (Macintosh; Intel Mac OS X 10_15_7) AppleWebKit/605.1.15 (KHTML, like Gecko) Version/17.0 Safari/605.1.15" version="22.1.7" etag="kfok3CCrg_qEH5zTILLI" type="github">
  <diagram name="Страница — 1" id="A3wfOQqpWlgLJ13CFTqS">
    <mxGraphModel>
      <root>
        <mxCell id="0" />
        <mxCell id="1" parent="0" />
      </root>
    </mxGraphModel>
  </diagram>
</mxfile>
